Daredevil Vs. Spider-Man 2002 DVDRip Xvid fasamoo LKRG



RIPPER                           : fasamoo
Format                           : AVI
Format/Info                      : Audio Video Interleave
File size                        : 690 MiB
Duration                         : 1h 20mn
Overall bit rate                 : 1 201 Kbps
Writing application              : VirtualDubMod 1.5.4.1 (build 2178/release)
Language                         : English
Subtitles                        : English(*.srt)
Genre                            : Animated 

Video
ID                               : 0
Format                           : MPEG-4 Visual
Format profile                   : Advanced Simple@L5
Format settings, BVOP            : Yes
Format settings, QPel            : No
Format settings, GMC             : No warppoints
Format settings, Matrix          : Custom
Codec ID                         : XVID
Codec ID/Hint                    : XviD
Duration                         : 1h 20mn
Bit rate                         : 1 061 Kbps
Width                            : 432 pixels
Height                           : 320 pixels
Display aspect ratio             : 4:3
Frame rate                       : 29.970 fps
Color space                      : YUV
Chroma subsampling               : 4:2:0
Bit depth                        : 8 bits
Scan type                        : Progressive
Bits/(Pixel*Frame)               : 0.256
Stream size                      : 610 MiB (88%)
Writing library                  : XviD 1.2.1 (UTC 2008-12-04)

Audio
ID                               : 1
Format                           : MPEG Audio
Format version                   : Version 1
Format profile                   : Layer 3
Mode                             : Joint stereo
Mode extension                   : MS Stereo
Codec ID                         : 55
Codec ID/Hint                    : MP3
Duration                         : 1h 20mn
Bit rate mode                    : Constant
Bit rate                         : 128 Kbps
Channel(s)                       : 2 channels
Sampling rate                    : 48.0 KHz
Stream size                      : 73.6 MiB (11%)
Alignment                        : Split accross interleaves
Interleave, duration             : 33 ms (1.00 video frame)
Interleave, preload duration     : 500 ms

 PLOT
Two legendary superheroes collide as Daredevil faces Spider-Man in an all-out fight for justice. Dwelling in a world of eternal darkness, Attorney Matt Murdock defends Peter Parker by day, but at night he takes to the streets, battling anyone in his path as he searches for truth ... and revenge. Discover the origin of Daredevil, "The Man Without Fear," and witness the thrills as he and the Webslinger ultimately team up to take down their supreme nemesis, The Kingpin. It's an animated, epic clash you'll want to experience over and over again! 
Released on the same day as the Daredevil movie with Ben Affleck, Daredevil vs. Spider-Man is a collection of four animated episodes from the Spider-Man animated series which started in 1994 on Fox. "Framed" and "The Man Without Fear" feature Daredevil, while "The Ultimate Slayer" and "Tombstone" are just Spidey adventures. The first two episodes tell the origin of Daredevil as attorney Matt Murdock, who overcompensates for his blindness with his other superhuman senses. This collection also introduces the villain Kingpin, Daredevil's ultimate nemesis. It should be noted that Daredevil and Spider-Man aren't really enemies, despite the curious title of this release.


                                 IMBD
                     
                 http://www.imdb.com/title/tt1488559/
 
http://leetleech.org/images/33107783920448122922.png 
http://leetleech.org/images/53277168303184278871.png 
http://leetleech.org/images/71008138556436774214.png 
http://leetleech.org/images/28667819105758769563.png